<svg width="246" height="38" viewBox="0 0 246 38" fill="none" xmlns="http://www.w3.org/2000/svg">
<path d="M29.6967 10.0564H31.0558L34.9293 6.18857L35.1196 4.54642C32.9006 2.59072 30.219 1.23216 27.328 0.59908C24.437 -0.0339994 21.4321 0.0793003 18.5971 0.928277C15.7622 1.77725 13.1908 3.33388 11.1258 5.45111C9.06088 7.56834 7.57054 10.1763 6.79559 13.0286C7.22712 12.8519 7.70513 12.8233 8.15471 12.9471L15.9017 11.6714C15.9017 11.6714 16.2958 11.02 16.4997 11.0607C18.1596 9.24033 20.4536 8.12236 22.912 7.93566C25.3704 7.74896 27.8073 8.50765 29.7239 10.0564H29.6967Z" fill="#EA4335"/>
<path d="M40.4473 13.0286C39.557 9.75464 37.7289 6.81142 35.1875 4.56L29.751 9.98857C30.8841 10.913 31.7921 12.0823 32.4065 13.4082C33.021 14.7341 33.326 16.1821 33.2983 17.6429V18.6064C33.9337 18.6064 34.5629 18.7314 35.1499 18.9742C35.737 19.217 36.2704 19.5729 36.7196 20.0215C37.1689 20.4702 37.5253 21.0028 37.7685 21.5889C38.0116 22.1751 38.1368 22.8034 38.1368 23.4379C38.1368 24.0723 38.0116 24.7006 37.7685 25.2868C37.5253 25.8729 37.1689 26.4056 36.7196 26.8542C36.2704 27.3028 35.737 27.6587 35.1499 27.9015C34.5629 28.1443 33.9337 28.2693 33.2983 28.2693H23.6214L22.6565 29.2464V35.0414L23.6214 36.005H33.2983C36.0006 36.026 38.6378 35.1779 40.82 33.5863C43.0021 31.9946 44.6132 29.7438 45.415 27.1669C46.2168 24.59 46.1667 21.8239 45.272 19.2776C44.3773 16.7314 42.6857 14.5403 40.4473 13.0286Z" fill="#4285F4"/>
<path d="M13.931 35.9507H23.6079V28.215H13.931C13.2415 28.2148 12.5602 28.0667 11.9331 27.7807L10.5739 28.2014L6.67328 32.0693L6.3335 33.4264C8.5209 35.0758 11.19 35.9626 13.931 35.9507Z" fill="#34A853"/>
<path d="M13.931 10.8571C11.309 10.8728 8.75736 11.7058 6.63249 13.2397C4.50762 14.7737 2.91562 16.9321 2.07883 19.4134C1.24204 21.8947 1.20226 24.575 1.96504 27.08C2.72783 29.585 4.25508 31.7895 6.33349 33.3857L11.9466 27.7807C11.2333 27.4589 10.6088 26.9691 10.1268 26.3533C9.64472 25.7375 9.31947 25.0142 9.17893 24.2453C9.03839 23.4764 9.08677 22.6849 9.3199 21.9388C9.55304 21.1926 9.96398 20.5141 10.5175 19.9615C11.0709 19.4088 11.7504 18.9984 12.4976 18.7656C13.2449 18.5328 14.0375 18.4845 14.8075 18.6249C15.5775 18.7652 16.3019 19.09 16.9186 19.5714C17.5353 20.0527 18.0258 20.6763 18.3481 21.3886L23.9612 15.7836C22.7831 14.2456 21.2646 13.0006 19.5246 12.146C17.7845 11.2913 15.8701 10.8502 13.931 10.8571Z" fill="#FBBC05"/>
<path d="M71.7477 30.5493C70.0816 30.5705 68.4284 30.2556 66.8871 29.6237C65.3457 28.9917 63.948 28.0556 62.7776 26.8714C61.5703 25.7375 60.6122 24.3654 59.9641 22.8421C59.316 21.3189 58.9921 19.6777 59.0128 18.0228C58.9929 16.3681 59.3172 14.7272 59.9653 13.2041C60.6133 11.6809 61.5709 10.3087 62.7776 9.17427C63.9422 7.97781 65.3374 7.02914 66.879 6.3854C68.4206 5.74167 70.0768 5.41618 71.7477 5.42856C73.3399 5.40737 74.9203 5.7024 76.3972 6.29651C77.8742 6.89062 79.2181 7.77195 80.3509 8.88927L77.9317 11.3457C76.275 9.74692 74.0514 8.86856 71.7477 8.90284C70.5527 8.88818 69.3677 9.12192 68.268 9.5892C67.1682 10.0565 66.1779 10.7471 65.3599 11.6171C64.5097 12.4593 63.839 13.4646 63.3882 14.5725C62.9374 15.6804 62.7158 16.8679 62.7368 18.0636C62.7268 19.2456 62.9537 20.4176 63.4042 21.5107C63.8547 22.6038 64.5196 23.5959 65.3599 24.4286C67.043 26.1034 69.3142 27.0562 71.6902 27.084C74.0661 27.1119 76.3592 26.2127 78.0812 24.5778C79.1473 23.412 79.8013 21.9295 79.9432 20.3571H71.7885V16.8828H83.3274C83.4408 17.5825 83.4863 18.2915 83.4633 19C83.5351 20.4663 83.3083 21.9318 82.7967 23.3081C82.2851 24.6844 81.4993 25.9427 80.4868 27.0071C79.3611 28.1775 78.0011 29.0978 76.4953 29.7081C74.9895 30.3184 73.3719 30.605 71.7477 30.5493ZM98.5767 28.2421C97.0281 29.7244 94.9659 30.5519 92.8208 30.5519C90.6757 30.5519 88.6135 29.7244 87.065 28.2421C86.2942 27.4959 85.6872 26.5978 85.2824 25.6049C84.8776 24.612 84.684 23.5459 84.7137 22.4743C84.6848 21.4028 84.8789 20.3369 85.2836 19.3441C85.6883 18.3513 86.2949 17.4532 87.065 16.7064C88.6151 15.2273 90.6767 14.4018 92.8208 14.4018C94.9649 14.4018 97.0265 15.2273 98.5767 16.7064C99.3468 17.4532 99.9534 18.3513 100.358 19.3441C100.763 20.3369 100.957 21.4028 100.928 22.4743C100.956 23.5469 100.76 24.6136 100.353 25.6065C99.9459 26.5995 99.3363 27.4971 98.5631 28.2421H98.5767ZM89.6065 25.9757C90.0184 26.4149 90.5162 26.7651 91.0691 27.0045C91.622 27.2438 92.2182 27.3673 92.8208 27.3673C93.4234 27.3673 94.0197 27.2438 94.5725 27.0045C95.1254 26.7651 95.6232 26.4149 96.0351 25.9757C96.4842 25.5122 96.8359 24.9636 97.0693 24.3622C97.3027 23.7609 97.4132 23.1189 97.3942 22.4743C97.4143 21.8274 97.3043 21.1831 97.0709 20.5794C96.8375 19.9757 96.4853 19.4248 96.0351 18.9593C95.6178 18.5245 95.1166 18.1786 94.5619 17.9423C94.0072 17.7059 93.4103 17.5841 92.8072 17.5841C92.2041 17.5841 91.6073 17.7059 91.0525 17.9423C90.4978 18.1786 89.9967 18.5245 89.5793 18.9593C89.1292 19.4248 88.777 19.9757 88.5436 20.5794C88.3101 21.1831 88.2002 21.8274 88.2202 22.4743C88.203 23.1199 88.3157 23.7624 88.5514 24.3638C88.7872 24.9652 89.1414 25.5133 89.5929 25.9757H89.6065ZM116.272 28.2421C114.724 29.7244 112.662 30.5519 110.517 30.5519C108.371 30.5519 106.309 29.7244 104.761 28.2421C103.99 27.4959 103.383 26.5978 102.978 25.6049C102.573 24.612 102.38 23.5459 102.409 22.4743C102.38 21.4028 102.575 20.3369 102.979 19.3441C103.384 18.3513 103.991 17.4532 104.761 16.7064C106.309 15.2242 108.371 14.3966 110.517 14.3966C112.662 14.3966 114.724 15.2242 116.272 16.7064C117.042 17.4532 117.649 18.3513 118.054 19.3441C118.458 20.3369 118.653 21.4028 118.624 22.4743C118.653 23.5459 118.46 24.612 118.055 25.6049C117.65 26.5978 117.043 27.4959 116.272 28.2421ZM107.302 25.9757C107.714 26.4149 108.212 26.7651 108.765 27.0045C109.318 27.2438 109.914 27.3673 110.517 27.3673C111.119 27.3673 111.715 27.2438 112.268 27.0045C112.821 26.7651 113.319 26.4149 113.731 25.9757C114.18 25.5122 114.532 24.9636 114.765 24.3622C114.998 23.7609 115.109 23.1189 115.09 22.4743C115.11 21.8274 115 21.1831 114.767 20.5794C114.533 19.9757 114.181 19.4248 113.731 18.9593C113.313 18.5245 112.812 18.1786 112.258 17.9423C111.703 17.7059 111.106 17.5841 110.503 17.5841C109.9 17.5841 109.303 17.7059 108.748 17.9423C108.193 18.1786 107.692 18.5245 107.275 18.9593C106.825 19.4248 106.473 19.9757 106.239 20.5794C106.006 21.1831 105.896 21.8274 105.916 22.4743C105.899 23.1199 106.011 23.7624 106.247 24.3638C106.483 24.9652 106.837 25.5133 107.289 25.9757H107.302ZM127.906 37.7964C126.277 37.8481 124.68 37.3404 123.381 36.3578C122.227 35.4918 121.318 34.3414 120.744 33.0193L123.843 31.73C124.18 32.5201 124.707 33.2148 125.378 33.7521C126.097 34.3302 126.998 34.6334 127.92 34.6071C128.505 34.6426 129.09 34.5519 129.637 34.3412C130.183 34.1304 130.678 33.8045 131.087 33.3857C131.906 32.3994 132.31 31.1347 132.215 29.8571V28.69H132.092C131.575 29.3042 130.92 29.7896 130.182 30.1076C129.444 30.4256 128.641 30.5675 127.838 30.5221C126.818 30.5252 125.808 30.3169 124.872 29.9105C123.937 29.504 123.095 28.9082 122.402 28.1607C121.65 27.4191 121.056 26.5328 120.656 25.5554C120.257 24.578 120.06 23.5298 120.078 22.4743C120.059 21.4126 120.255 20.358 120.655 19.3739C121.054 18.3897 121.648 17.4963 122.402 16.7471C123.094 15.9965 123.934 15.3977 124.87 14.9888C125.806 14.58 126.817 14.3699 127.838 14.3721C128.703 14.3706 129.557 14.5607 130.339 14.9286C131.016 15.2236 131.619 15.6638 132.106 16.2178H132.228V14.9286H135.599V29.3821C135.688 30.5255 135.542 31.6749 135.17 32.76C134.799 33.8451 134.209 34.8431 133.438 35.6928C132.703 36.3946 131.835 36.9423 130.885 37.3036C129.935 37.6649 128.922 37.8325 127.906 37.7964ZM128.151 27.3736C128.731 27.3863 129.307 27.2713 129.838 27.0368C130.369 26.8022 130.842 26.4539 131.223 26.0164C132.061 25.0568 132.503 23.8149 132.459 22.5421C132.51 21.2478 132.068 19.9824 131.223 19C130.842 18.5618 130.37 18.2129 129.839 17.9783C129.308 17.7437 128.732 17.6292 128.151 17.6428C127.555 17.6306 126.963 17.7453 126.414 17.9793C125.866 18.2133 125.374 18.5613 124.971 19C124.072 19.9471 123.583 21.2103 123.612 22.515C123.598 23.1549 123.711 23.7913 123.944 24.3876C124.177 24.9838 124.526 25.5281 124.971 25.9893C125.372 26.4322 125.863 26.7848 126.412 27.0235C126.96 27.2621 127.553 27.3815 128.151 27.3736ZM141.593 6.33784V30.0607H138.045V6.33784H141.593ZM151.324 30.5493C150.262 30.5765 149.205 30.3845 148.22 29.9852C147.236 29.5858 146.344 28.9878 145.602 28.2286C144.849 27.4749 144.257 26.5761 143.862 25.587C143.467 24.5978 143.278 23.5388 143.305 22.4743C143.265 21.4071 143.44 20.3429 143.821 19.3449C144.202 18.347 144.78 17.4358 145.521 16.6657C146.219 15.9308 147.063 15.3495 147.999 14.9592C148.935 14.569 149.943 14.3782 150.957 14.3993C151.89 14.3894 152.815 14.5695 153.675 14.9286C154.45 15.241 155.157 15.7021 155.755 16.2857C156.268 16.7805 156.724 17.3313 157.114 17.9278C157.429 18.4315 157.698 18.963 157.916 19.5157L158.283 20.4386L147.41 24.9036C147.739 25.658 148.289 26.2952 148.987 26.7313C149.686 27.1674 150.501 27.3819 151.324 27.3464C152.125 27.3486 152.913 27.1435 153.611 26.751C154.309 26.3585 154.893 25.7922 155.306 25.1071L158.024 26.9393C157.331 27.9303 156.443 28.7705 155.415 29.4093C154.192 30.1806 152.77 30.577 151.324 30.5493ZM146.785 22.23L154.015 19.2307C153.792 18.7019 153.394 18.2657 152.887 17.9957C152.319 17.6756 151.677 17.5117 151.025 17.5207C149.919 17.5493 148.869 18.0126 148.103 18.81C147.645 19.248 147.289 19.7816 147.061 20.3728C146.833 20.964 146.739 21.5982 146.785 22.23Z" fill="#5F6368"/>
<path d="M176.862 30.5493C175.353 30.5753 173.855 30.2966 172.457 29.73C171.059 29.1634 169.79 28.3205 168.726 27.252C167.662 26.1835 166.826 24.9113 166.267 23.512C165.708 22.1126 165.437 20.6148 165.472 19.1086C165.437 17.6023 165.708 16.1046 166.267 14.7052C166.826 13.3058 167.662 12.0336 168.726 10.9651C169.79 9.8966 171.059 9.05373 172.457 8.48712C173.855 7.92051 175.353 7.64184 176.862 7.66785C178.389 7.62018 179.907 7.91766 181.302 8.53807C182.698 9.15849 183.935 10.0858 184.921 11.2507L182.964 13.1507C182.24 12.2413 181.311 11.5153 180.253 11.0319C179.195 10.5485 178.038 10.3212 176.875 10.3686C175.756 10.3434 174.644 10.5444 173.604 10.9595C172.565 11.3747 171.62 11.9954 170.827 12.7843C170.003 13.6122 169.359 14.6013 168.935 15.6897C168.512 16.778 168.319 17.942 168.367 19.1086C168.319 20.2751 168.512 21.4391 168.935 22.5274C169.359 23.6158 170.003 24.605 170.827 25.4328C171.62 26.2218 172.565 26.8425 173.604 27.2576C174.644 27.6727 175.756 27.8737 176.875 27.8486C178.174 27.8631 179.46 27.5851 180.636 27.0353C181.813 26.4855 182.85 25.678 183.671 24.6728L185.628 26.6271C184.603 27.8507 183.317 28.8292 181.863 29.4907C180.297 30.213 178.587 30.5748 176.862 30.5493Z" fill="#5F6368"/>
<path d="M190.888 30.0607H188.074V8.14285H190.888V30.0607Z" fill="#5F6368"/>
<path d="M195.482 16.8693C196.956 15.4074 198.949 14.5869 201.027 14.5869C203.105 14.5869 205.098 15.4074 206.572 16.8693C207.293 17.6293 207.856 18.5242 208.229 19.5024C208.603 20.4807 208.778 21.523 208.747 22.5693C208.778 23.6156 208.603 24.6579 208.229 25.6361C207.856 26.6144 207.293 27.5093 206.572 28.2693C205.098 29.7312 203.105 30.5517 201.027 30.5517C198.949 30.5517 196.956 29.7312 195.482 28.2693C194.761 27.5093 194.197 26.6144 193.824 25.6361C193.451 24.6579 193.275 23.6156 193.307 22.5693C193.275 21.523 193.451 20.4807 193.824 19.5024C194.197 18.5242 194.761 17.6293 195.482 16.8693ZM197.575 26.505C198.018 26.9728 198.552 27.3454 199.145 27.6C199.737 27.8547 200.375 27.986 201.02 27.986C201.665 27.986 202.303 27.8547 202.896 27.6C203.488 27.3454 204.022 26.9728 204.465 26.505C204.957 25.9781 205.339 25.3588 205.589 24.6831C205.838 24.0074 205.951 23.2888 205.92 22.5693C205.951 21.8497 205.838 21.1312 205.589 20.4555C205.339 19.7798 204.957 19.1605 204.465 18.6336C204.022 18.1658 203.488 17.7932 202.896 17.5385C202.303 17.2839 201.665 17.1526 201.02 17.1526C200.375 17.1526 199.737 17.2839 199.145 17.5385C198.552 17.7932 198.018 18.1658 197.575 18.6336C197.083 19.1605 196.701 19.7798 196.451 20.4555C196.202 21.1312 196.089 21.8497 196.12 22.5693C196.093 23.2875 196.208 24.0041 196.46 24.6774C196.712 25.3506 197.096 25.9673 197.588 26.4914L197.575 26.505Z" fill="#5F6368"/>
<path d="M224.336 30.0607H221.617V27.9843H221.536C221.052 28.7729 220.367 29.4192 219.552 29.8571C218.705 30.347 217.744 30.6046 216.765 30.6036C215.971 30.6578 215.175 30.5322 214.436 30.2361C213.697 29.94 213.034 29.4811 212.498 28.8936C211.468 27.5932 210.951 25.9615 211.044 24.3064V15.0779H213.857V23.7907C213.857 26.5864 215.094 27.9843 217.567 27.9843C218.117 28.0014 218.663 27.8872 219.159 27.6511C219.656 27.415 220.088 27.064 220.421 26.6271C221.151 25.7043 221.539 24.5589 221.522 23.3836V15.0779H224.336V30.0607Z" fill="#5F6368"/>
<path d="M233.89 30.5493C232.936 30.5524 231.992 30.3491 231.124 29.9531C230.256 29.5572 229.484 28.9781 228.862 28.2557C227.452 26.7017 226.698 24.6649 226.755 22.5693C226.698 20.4737 227.452 18.4369 228.862 16.8829C229.484 16.1605 230.256 15.5814 231.124 15.1854C231.992 14.7895 232.936 14.5861 233.89 14.5893C234.959 14.5724 236.016 14.8244 236.962 15.3221C237.793 15.7399 238.497 16.3726 239.001 17.1543H239.123L239.001 15.0779V8.14285H241.814V30.0607H239.096V27.9843H238.973C238.47 28.766 237.766 29.3987 236.935 29.8164C235.997 30.3097 234.95 30.5616 233.89 30.5493ZM234.352 27.9843C234.988 27.9935 235.619 27.8676 236.202 27.6149C236.786 27.3622 237.309 26.9885 237.737 26.5186C238.692 25.4319 239.181 24.013 239.096 22.5693C239.181 21.1256 238.692 19.7066 237.737 18.62C237.306 18.1475 236.781 17.77 236.196 17.5117C235.611 17.2534 234.979 17.12 234.339 17.12C233.699 17.12 233.066 17.2534 232.481 17.5117C231.896 17.77 231.372 18.1475 230.941 18.62C230.466 19.1544 230.102 19.7772 229.869 20.4526C229.635 21.128 229.538 21.8427 229.582 22.5557C229.538 23.2688 229.635 23.9835 229.869 24.6588C230.102 25.3342 230.466 25.957 230.941 26.4914C231.369 26.9698 231.896 27.3506 232.484 27.6082C233.073 27.8657 233.71 27.994 234.352 27.9843Z" fill="#5F6368"/>
</svg>
