<svg width="126" height="35" viewBox="0 0 126 35" fill="none" xmlns="http://www.w3.org/2000/svg">
<path d="M24.2667 15.0589H13.6813C13.4084 15.0589 13.188 15.2791 13.188 15.5552V20.7281C13.188 21.0007 13.4084 21.2244 13.6813 21.2244H17.8126V27.6519C17.8126 27.6519 16.8856 27.9665 14.3214 27.9665C11.2955 27.9665 7.06977 26.862 7.06977 17.5789C7.06977 8.29233 11.4704 7.07253 15.6018 7.07253C19.1769 7.07253 20.7196 7.70165 21.699 8.00573C22.0069 8.1001 22.2902 7.79253 22.2902 7.51991L23.4726 2.52185C23.4726 2.39253 23.4306 2.23874 23.2837 2.13738C22.8814 1.84379 20.4537 0.487671 14.3179 0.487671C7.25167 0.487671 0 3.4935 0 17.9354C0 32.3809 8.30112 34.5304 15.2974 34.5304C21.0904 34.5304 24.6025 32.0558 24.6025 32.0558C24.7459 31.9754 24.7634 31.7727 24.7634 31.6819V15.5552C24.7634 15.2791 24.5395 15.0589 24.2667 15.0589Z" fill="#161516"/>
<path d="M78.8344 2.21775C78.8344 1.94163 78.6175 1.72144 78.3447 1.72144H72.3838C72.1109 1.72144 71.8905 1.94512 71.8905 2.21775V13.7273H62.5994V2.21775C62.5994 1.94163 62.3791 1.72144 62.1062 1.72144H56.1453C55.8725 1.72144 55.6521 1.94512 55.6521 2.21775V33.3875C55.6521 33.6636 55.8725 33.8873 56.1453 33.8873H62.1062C62.3791 33.8873 62.5994 33.6636 62.5994 33.3875V20.0535H71.8905L71.8731 33.384C71.8731 33.6601 72.0934 33.8838 72.3663 33.8838H78.3412C78.614 33.8838 78.8309 33.6601 78.8344 33.384V2.21775Z" fill="#161516"/>
<path d="M35.5168 6.30707C35.5168 4.16105 33.7957 2.42746 31.6723 2.42746C29.5524 2.42746 27.8278 4.16105 27.8278 6.30707C27.8278 8.4496 29.5489 10.1867 31.6723 10.1867C33.7957 10.1902 35.5168 8.4496 35.5168 6.30707Z" fill="#161516"/>
<path d="M35.0897 26.8131C35.0897 26.0127 35.0897 12.4271 35.0897 12.4271C35.0897 12.1544 34.8693 11.9308 34.5965 11.9308H28.6531C28.3802 11.9308 28.1354 12.2104 28.1354 12.4865C28.1354 12.4865 28.1354 29.7979 28.1354 33.1009C28.1354 33.7055 28.5132 33.8873 29.0029 33.8873C29.0029 33.8873 31.5391 33.8873 34.3586 33.8873C34.9463 33.8873 35.0897 33.6007 35.0897 33.0904C35.0897 31.9824 35.0897 27.6519 35.0897 26.8131Z" fill="#161516"/>
<path d="M101.488 11.9762H95.5731C95.3002 11.9762 95.0798 12.1999 95.0798 12.476V27.7603C95.0798 27.7603 93.5756 28.8577 91.4452 28.8577C89.3114 28.8577 88.7447 27.8896 88.7447 25.803C88.7447 23.7129 88.7447 12.476 88.7447 12.476C88.7447 12.1999 88.5243 11.9762 88.2514 11.9762H82.2486C81.9792 11.9762 81.7554 12.1999 81.7554 12.476C81.7554 12.476 81.7554 20.6162 81.7554 26.8131C81.7554 33.01 85.2115 34.5269 89.969 34.5269C93.8695 34.5269 97.0178 32.3739 97.0178 32.3739C97.0178 32.3739 97.1682 33.5098 97.2347 33.6426C97.3011 33.7754 97.4796 33.9117 97.6685 33.9117L101.488 33.8943C101.758 33.8943 101.982 33.6706 101.982 33.3979L101.978 12.476C101.985 12.1999 101.761 11.9762 101.488 11.9762Z" fill="#161516"/>
<path d="M117.66 11.2737C114.299 11.2737 112.014 12.7731 112.014 12.7731V2.21775C112.014 1.94163 111.794 1.72144 111.521 1.72144H105.543C105.27 1.72144 105.05 1.94512 105.05 2.21775V33.3875C105.05 33.6636 105.27 33.8873 105.543 33.8873C105.543 33.8873 109.688 33.8873 109.692 33.8873C109.877 33.8873 110.02 33.7894 110.125 33.6216C110.227 33.4539 110.377 32.1851 110.377 32.1851C110.377 32.1851 112.822 34.4989 117.451 34.4989C122.883 34.4989 126 31.7447 126 22.1366C125.997 12.5319 121.022 11.2737 117.66 11.2737ZM115.327 28.8368C113.274 28.7739 111.885 27.8442 111.885 27.8442V17.9739C111.885 17.9739 113.26 17.1315 114.942 16.9812C117.073 16.789 119.126 17.4321 119.126 22.5106C119.123 27.8651 118.196 28.9242 115.327 28.8368Z" fill="#161516"/>
<path d="M52.2239 11.9238H47.7533C47.7533 11.9238 47.7463 6.024 47.7463 6.0205C47.7463 5.79681 47.6309 5.68497 47.372 5.68497H41.2782C41.0403 5.68497 40.9144 5.78982 40.9144 6.01701V12.116C40.9144 12.116 37.8605 12.8535 37.6541 12.9129C37.4477 12.9723 37.2973 13.1611 37.2973 13.3883V17.2224C37.2973 17.4986 37.5177 17.7188 37.7905 17.7188H40.9144C40.9144 17.7188 40.9144 21.7277 40.9144 26.9389C40.9144 33.7894 45.7244 34.4605 48.9672 34.4605C50.4504 34.4605 52.2239 33.9852 52.5178 33.8768C52.6962 33.8104 52.7976 33.6287 52.7976 33.4294L52.8011 29.2143C52.8011 28.9382 52.5703 28.718 52.3079 28.718C52.049 28.718 51.3809 28.8228 50.6952 28.8228C48.4984 28.8228 47.7533 27.8022 47.7533 26.4811C47.7533 25.1599 47.7533 17.7188 47.7533 17.7188H52.2239C52.4968 17.7188 52.7172 17.4951 52.7172 17.2224V12.4236C52.7172 12.1475 52.4968 11.9238 52.2239 11.9238Z" fill="#161516"/>
</svg>
